<?xml version="1.0" encoding="UTF-8" standalone="no"?>
<!DOCTYPE svg PUBLIC "-//W3C//DTD SVG 1.1//EN" "http://www.w3.org/Graphics/SVG/1.1/DTD/svg11.dtd">
<svg width="100%" height="100%" viewBox="0 0 437 492" version="1.1" xmlns="http://www.w3.org/2000/svg" xmlns:xlink="http://www.w3.org/1999/xlink" xml:space="preserve" xmlns:serif="http://www.serif.com/" style="fill-rule:evenodd;clip-rule:evenodd;stroke-linejoin:round;stroke-miterlimit:2;">
    <g transform="matrix(1,0,0,1,-1.34039e-14,-8.43862)">
        <g transform="matrix(1.11029,0,0,1.11029,-74.5189,-23.3544)">
            <g transform="matrix(1.23383,0,0,1.23383,57.3808,17.7)">
                <g>
                    <g transform="matrix(1,0,0,1,-16.4062,-46.875)">
                        <g transform="matrix(1,0,0,1,16.4062,46.875)">
                            <path d="M225.282,26.126C226.723,26.126 228.105,26.698 229.125,27.718C230.144,28.737 230.717,30.119 230.717,31.561L230.717,323.121C230.717,324.562 230.144,325.944 229.125,326.964C228.105,327.983 226.723,328.556 225.282,328.556L16.202,328.556C14.761,328.556 13.379,327.983 12.359,326.964C11.34,325.944 10.768,324.562 10.768,323.121L10.768,31.561C10.768,30.119 11.34,28.737 12.359,27.718C13.379,26.698 14.761,26.126 16.202,26.126L225.282,26.126Z" style="fill:rgb(4,4,11);"/>
                        </g>
                        <g transform="matrix(1,0,0,1,-106.138,-4.36487)">
                            <g transform="matrix(1,0,0,1,98.4655,27.4936)">
                                <path d="M252.238,32.609C253.679,32.609 255.062,33.181 256.081,34.201C257.1,35.22 257.673,36.602 257.673,38.043L257.673,350.064C257.673,351.505 257.1,352.888 256.081,353.907C255.062,354.926 253.679,355.499 252.238,355.499L37.404,355.499C35.963,355.499 34.58,354.926 33.561,353.907C32.542,352.888 31.969,351.505 31.969,350.064L31.969,38.043C31.969,36.602 32.542,35.22 33.561,34.201C34.58,33.181 35.963,32.609 37.404,32.609L252.238,32.609ZM249.361,49.872L40.281,49.872C38.84,49.872 37.458,50.445 36.438,51.464C35.419,52.483 34.847,53.866 34.847,55.307L34.847,346.867C34.847,348.308 35.419,349.691 36.438,350.71C37.458,351.729 38.84,352.302 40.281,352.302L249.361,352.302C250.802,352.302 252.184,351.729 253.204,350.71C254.223,349.691 254.795,348.308 254.795,346.867L254.795,55.307C254.795,53.866 254.223,52.483 253.204,51.464C252.184,50.445 250.802,49.872 249.361,49.872Z" style="fill:url(#_Linear1);"/>
                            </g>
                            <g>
                                <g transform="matrix(1,0,0,1,63.9386,46.5473)">
                                    <circle cx="284.322" cy="22.005" r="3.069" style="fill:white;"/>
                                </g>
                                <g transform="matrix(1,0,0,1,55.243,46.5473)">
                                    <circle cx="284.322" cy="22.005" r="3.069" style="fill:white;"/>
                                </g>
                                <g transform="matrix(1,0,0,1,46.5473,46.5473)">
                                    <circle cx="284.322" cy="22.005" r="3.069" style="fill:white;"/>
                                </g>
                            </g>
                        </g>
                        <g transform="matrix(1,0,0,1,-106.33,2.92912)">
                            <g>
                                <g transform="matrix(0.905983,0,0,1,144.584,-9.20716)">
                                    <path d="M217.879,95.269C219.728,95.269 221.228,96.627 221.228,98.302L221.228,160.649C221.228,162.325 219.728,163.683 217.879,163.683L149.768,163.683C147.919,163.683 146.419,162.325 146.419,160.649L146.419,98.302C146.419,96.627 147.919,95.269 149.768,95.269L217.879,95.269Z" style="fill:url(#_Linear2);"/>
                                </g>
                                <g transform="matrix(1,0,0,1,-1.02302,-6.0154)">
                                    <g transform="matrix(1.12948,0,0,0.721323,-20.2445,17.3617)">
                                        <path d="M251.44,103.581C253.47,103.581 255.115,106.157 255.115,109.335C255.115,109.335 255.115,109.335 255.115,109.335C255.115,112.513 253.47,115.09 251.44,115.09C234.612,115.09 165.004,115.09 148.176,115.09C146.147,115.09 144.501,112.513 144.501,109.335C144.501,109.335 144.501,109.335 144.501,109.335C144.501,106.157 146.147,103.581 148.176,103.581C165.004,103.581 234.612,103.581 251.44,103.581Z" style="fill:url(#_Linear3);"/>
                                    </g>
                                    <g transform="matrix(1.12948,0,0,0.721323,-20.2445,29.638)">
                                        <path d="M251.44,103.581C253.47,103.581 255.115,106.157 255.115,109.335C255.115,109.335 255.115,109.335 255.115,109.335C255.115,112.513 253.47,115.09 251.44,115.09C234.612,115.09 165.004,115.09 148.176,115.09C146.147,115.09 144.501,112.513 144.501,109.335C144.501,109.335 144.501,109.335 144.501,109.335C144.501,106.157 146.147,103.581 148.176,103.581C165.004,103.581 234.612,103.581 251.44,103.581Z" style="fill:url(#_Linear4);"/>
                                    </g>
                                    <g transform="matrix(0.759538,0,0,0.721323,33.2126,41.4027)">
                                        <path d="M249.65,103.581C252.668,103.581 255.115,106.157 255.115,109.335C255.115,109.335 255.115,109.335 255.115,109.335C255.115,112.513 252.668,115.09 249.65,115.09C230.825,115.09 168.791,115.09 149.966,115.09C146.948,115.09 144.501,112.513 144.501,109.335C144.501,109.335 144.501,109.335 144.501,109.335C144.501,106.157 146.948,103.581 149.966,103.581C168.791,103.581 230.825,103.581 249.65,103.581Z" style="fill:url(#_Linear5);"/>
                                    </g>
                                </g>
                                <g transform="matrix(1,0,0,1,8.4399,2.84217e-14)">
                                    <g transform="matrix(0.623121,0,0,1.25466,43.462,10.0779)">
                                        <path d="M243.529,103.581C249.928,103.581 255.115,106.157 255.115,109.335C255.115,109.335 255.115,109.335 255.115,109.335C255.115,112.513 249.928,115.09 243.529,115.09C222.285,115.09 177.332,115.09 156.087,115.09C149.688,115.09 144.501,112.513 144.501,109.335C144.501,109.335 144.501,109.335 144.501,109.335C144.501,106.157 149.688,103.581 156.087,103.581C177.332,103.581 222.285,103.581 243.529,103.581Z" style="fill:url(#_Linear6);"/>
                                    </g>
                                    <g transform="matrix(0.47052,0,0,1.25466,138.403,10.0779)">
                                        <path d="M239.772,103.581C243.841,103.581 247.744,104.187 250.621,105.266C253.499,106.345 255.115,107.809 255.115,109.335C255.115,109.335 255.115,109.335 255.115,109.335C255.115,110.862 253.499,112.325 250.621,113.404C247.744,114.483 243.841,115.09 239.772,115.09C218.677,115.09 180.939,115.09 159.845,115.09C155.775,115.09 151.873,114.483 148.995,113.404C146.118,112.325 144.501,110.862 144.501,109.335C144.501,109.335 144.501,109.335 144.501,109.335C144.501,107.809 146.118,106.345 148.995,105.266C151.873,104.187 155.775,103.581 159.845,103.581C180.939,103.581 218.677,103.581 239.772,103.581Z" style="fill:url(#_Linear7);"/>
                                    </g>
                                </g>
                            </g>
                        </g>
                    </g>
                    <g transform="matrix(1.05904,0,0,1.05904,-72.8267,72.4109)">
                        <g>
                            <g>
                                <g transform="matrix(2.19258,0,0,2.19258,-576.96,40.6707)">
                                    <path d="M421.781,16.736C422.438,16.736 423.068,16.997 423.533,17.462C423.998,17.927 424.259,18.557 424.259,19.215L424.259,104.677C424.259,105.335 423.998,105.965 423.533,106.43C423.068,106.895 422.438,107.156 421.781,107.156L326.423,107.156C325.765,107.156 325.135,106.895 324.67,106.43C324.205,105.965 323.944,105.335 323.944,104.677L323.944,19.215C323.944,18.557 324.205,17.927 324.67,17.462C325.135,16.997 325.765,16.736 326.423,16.736L421.781,16.736Z" style="fill:rgb(4,4,11);"/>
                                </g>
                                <g transform="matrix(1,0,0,1,98.4655,27.4936)">
                                    <path d="M252.238,32.609C253.679,32.609 255.062,33.181 256.081,34.201C257.1,35.22 257.673,36.602 257.673,38.043L257.673,245.887C257.673,247.328 257.1,248.711 256.081,249.73C255.062,250.749 253.679,251.322 252.238,251.322L37.404,251.322C35.963,251.322 34.58,250.749 33.561,249.73C32.542,248.711 31.969,247.328 31.969,245.887L31.969,38.043C31.969,36.602 32.542,35.22 33.561,34.201C34.58,33.181 35.963,32.609 37.404,32.609L252.238,32.609ZM249.361,49.872L40.281,49.872C38.84,49.872 37.458,50.445 36.438,51.464C35.419,52.483 34.847,53.866 34.847,55.307L34.847,242.69C34.847,244.131 35.419,245.514 36.438,246.533C37.458,247.552 38.84,248.125 40.281,248.125L249.361,248.125C250.802,248.125 252.184,247.552 253.204,246.533C254.223,245.514 254.795,244.131 254.795,242.69L254.795,55.307C254.795,53.866 254.223,52.483 253.204,51.464C252.184,50.445 250.802,49.872 249.361,49.872Z" style="fill:url(#_Linear8);"/>
                                </g>
                                <g>
                                    <g transform="matrix(1,0,0,1,63.9386,46.5473)">
                                        <circle cx="284.322" cy="22.005" r="3.069" style="fill:white;"/>
                                    </g>
                                    <g transform="matrix(1,0,0,1,55.243,46.5473)">
                                        <circle cx="284.322" cy="22.005" r="3.069" style="fill:white;"/>
                                    </g>
                                    <g transform="matrix(1,0,0,1,46.5473,46.5473)">
                                        <circle cx="284.322" cy="22.005" r="3.069" style="fill:white;"/>
                                    </g>
                                </g>
                                <g transform="matrix(1,0,0,1,-0.191816,1.53453)">
                                    <g transform="matrix(1,0,0,1,0,5.75946)">
                                        <g transform="matrix(0.905983,0,0,1,144.584,-9.20716)">
                                            <path d="M218.066,95.269C218.904,95.269 219.709,95.57 220.302,96.108C220.894,96.645 221.228,97.373 221.228,98.133C221.228,109.277 221.228,149.674 221.228,160.818C221.228,161.578 220.894,162.307 220.302,162.844C219.709,163.381 218.904,163.683 218.066,163.683C205.848,163.683 161.799,163.683 149.581,163.683C148.743,163.683 147.939,163.381 147.346,162.844C146.753,162.307 146.419,161.578 146.419,160.818C146.419,149.674 146.419,109.277 146.419,98.133C146.419,97.373 146.753,96.645 147.346,96.108C147.939,95.57 148.743,95.269 149.581,95.269C161.799,95.269 205.848,95.269 218.066,95.269Z" style="fill:url(#_Linear9);"/>
                                        </g>
                                        <g transform="matrix(1,0,0,1,-1.02302,-6.0154)">
                                            <g transform="matrix(1.12948,0,0,0.721323,-20.2445,17.3617)">
                                                <path d="M251.44,103.581C252.415,103.581 253.35,104.187 254.039,105.266C254.728,106.345 255.115,107.809 255.115,109.335C255.115,109.335 255.115,109.335 255.115,109.335C255.115,110.861 254.728,112.325 254.039,113.404C253.35,114.483 252.415,115.09 251.44,115.09C234.612,115.09 165.005,115.09 148.176,115.09C147.202,115.09 146.267,114.483 145.578,113.404C144.888,112.325 144.501,110.861 144.501,109.335C144.501,109.335 144.501,109.335 144.501,109.335C144.501,107.809 144.888,106.345 145.578,105.266C146.267,104.187 147.202,103.581 148.176,103.581C165.005,103.581 234.612,103.581 251.44,103.581Z" style="fill:url(#_Linear10);"/>
                                            </g>
                                            <g transform="matrix(1.12948,0,0,0.721323,-20.2445,29.638)">
                                                <path d="M251.44,103.581C252.415,103.581 253.35,104.187 254.039,105.266C254.728,106.345 255.115,107.809 255.115,109.335C255.115,109.335 255.115,109.335 255.115,109.335C255.115,110.861 254.728,112.325 254.039,113.404C253.35,114.483 252.415,115.09 251.44,115.09C234.612,115.09 165.005,115.09 148.176,115.09C147.202,115.09 146.267,114.483 145.578,113.404C144.888,112.325 144.501,110.861 144.501,109.335C144.501,109.335 144.501,109.335 144.501,109.335C144.501,107.809 144.888,106.345 145.578,105.266C146.267,104.187 147.202,103.581 148.176,103.581C165.005,103.581 234.612,103.581 251.44,103.581Z" style="fill:url(#_Linear11);"/>
                                            </g>
                                            <g transform="matrix(0.759538,0,0,0.721323,33.2126,41.4027)">
                                                <path d="M249.65,103.581C252.668,103.581 255.115,106.157 255.115,109.335C255.115,109.335 255.115,109.335 255.115,109.335C255.115,112.513 252.668,115.09 249.65,115.09C230.825,115.09 168.792,115.09 149.966,115.09C146.948,115.09 144.501,112.513 144.501,109.335C144.501,109.335 144.501,109.335 144.501,109.335C144.501,106.157 146.948,103.581 149.966,103.581C168.792,103.581 230.825,103.581 249.65,103.581Z" style="fill:url(#_Linear12);"/>
                                            </g>
                                        </g>
                                        <g transform="matrix(1,0,0,1,8.4399,2.84217e-14)">
                                            <g transform="matrix(0.623121,0,0,1.25466,43.462,10.0779)">
                                                <path d="M243.529,103.581C249.928,103.581 255.115,106.157 255.115,109.335C255.115,109.335 255.115,109.335 255.115,109.335C255.115,112.513 249.928,115.09 243.529,115.09C222.285,115.09 177.332,115.09 156.087,115.09C149.688,115.09 144.501,112.513 144.501,109.335C144.501,109.335 144.501,109.335 144.501,109.335C144.501,106.157 149.688,103.581 156.087,103.581C177.332,103.581 222.285,103.581 243.529,103.581Z" style="fill:url(#_Linear13);"/>
                                            </g>
                                            <g transform="matrix(0.47052,0,0,1.25466,138.403,10.0779)">
                                                <path d="M239.772,103.581C248.246,103.581 255.115,106.157 255.115,109.335C255.115,109.335 255.115,109.335 255.115,109.335C255.115,112.513 248.246,115.09 239.772,115.09L159.845,115.09C151.371,115.09 144.501,112.513 144.501,109.335C144.501,109.335 144.501,109.335 144.501,109.335C144.501,106.157 151.371,103.581 159.845,103.581L239.772,103.581Z" style="fill:url(#_Linear14);"/>
                                            </g>
                                        </g>
                                    </g>
                                    <g transform="matrix(-1,0,0,1,486.957,106.91)">
                                        <g transform="matrix(0.905983,0,0,1,144.584,-9.20716)">
                                            <path d="M218.066,95.269C218.904,95.269 219.709,95.57 220.302,96.108C220.894,96.645 221.228,97.373 221.228,98.133C221.228,109.277 221.228,149.674 221.228,160.818C221.228,161.578 220.894,162.307 220.302,162.844C219.709,163.381 218.904,163.683 218.066,163.683C205.848,163.683 161.799,163.683 149.581,163.683C148.743,163.683 147.939,163.381 147.346,162.844C146.753,162.307 146.419,161.578 146.419,160.818C146.419,149.674 146.419,109.277 146.419,98.133C146.419,97.373 146.753,96.645 147.346,96.108C147.939,95.57 148.743,95.269 149.581,95.269C161.799,95.269 205.848,95.269 218.066,95.269Z" style="fill:url(#_Linear15);"/>
                                        </g>
                                        <g transform="matrix(1,0,0,1,-1.02302,-6.0154)">
                                            <g transform="matrix(1.12948,0,0,0.721323,-20.2445,17.3617)">
                                                <path d="M251.44,103.581C252.415,103.581 253.35,104.187 254.039,105.266C254.728,106.345 255.115,107.809 255.115,109.335C255.115,109.335 255.115,109.335 255.115,109.335C255.115,110.861 254.728,112.325 254.039,113.404C253.35,114.483 252.415,115.09 251.44,115.09C234.612,115.09 165.005,115.09 148.176,115.09C147.202,115.09 146.267,114.483 145.578,113.404C144.888,112.325 144.501,110.861 144.501,109.335C144.501,109.335 144.501,109.335 144.501,109.335C144.501,107.809 144.888,106.345 145.578,105.266C146.267,104.187 147.202,103.581 148.176,103.581C165.005,103.581 234.612,103.581 251.44,103.581Z" style="fill:url(#_Linear16);"/>
                                            </g>
                                            <g transform="matrix(1.12948,0,0,0.721323,-20.2445,29.638)">
                                                <path d="M251.44,103.581C252.415,103.581 253.35,104.187 254.039,105.266C254.728,106.345 255.115,107.809 255.115,109.335C255.115,109.335 255.115,109.335 255.115,109.335C255.115,110.861 254.728,112.325 254.039,113.404C253.35,114.483 252.415,115.09 251.44,115.09C234.612,115.09 165.005,115.09 148.176,115.09C147.202,115.09 146.267,114.483 145.578,113.404C144.888,112.325 144.501,110.861 144.501,109.335C144.501,109.335 144.501,109.335 144.501,109.335C144.501,107.809 144.888,106.345 145.578,105.266C146.267,104.187 147.202,103.581 148.176,103.581C165.005,103.581 234.612,103.581 251.44,103.581Z" style="fill:url(#_Linear17);"/>
                                            </g>
                                            <g transform="matrix(0.759538,0,0,0.721323,33.2126,41.4027)">
                                                <path d="M249.65,103.581C252.668,103.581 255.115,106.157 255.115,109.335C255.115,109.335 255.115,109.335 255.115,109.335C255.115,112.513 252.668,115.09 249.65,115.09C230.825,115.09 168.792,115.09 149.966,115.09C146.948,115.09 144.501,112.513 144.501,109.335C144.501,109.335 144.501,109.335 144.501,109.335C144.501,106.157 146.948,103.581 149.966,103.581C168.792,103.581 230.825,103.581 249.65,103.581Z" style="fill:url(#_Linear18);"/>
                                            </g>
                                        </g>
                                        <g transform="matrix(1,0,0,1,8.4399,2.84217e-14)">
                                            <g transform="matrix(0.623121,0,0,1.25466,43.462,10.0779)">
                                                <path d="M243.529,103.581C249.928,103.581 255.115,106.157 255.115,109.335C255.115,109.335 255.115,109.335 255.115,109.335C255.115,112.513 249.928,115.09 243.529,115.09C222.285,115.09 177.332,115.09 156.087,115.09C149.688,115.09 144.501,112.513 144.501,109.335C144.501,109.335 144.501,109.335 144.501,109.335C144.501,106.157 149.688,103.581 156.087,103.581C177.332,103.581 222.285,103.581 243.529,103.581Z" style="fill:url(#_Linear19);"/>
                                            </g>
                                            <g transform="matrix(0.47052,0,0,1.25466,138.403,10.0779)">
                                                <path d="M239.772,103.581C248.246,103.581 255.115,106.157 255.115,109.335C255.115,109.335 255.115,109.335 255.115,109.335C255.115,112.513 248.246,115.09 239.772,115.09L159.845,115.09C151.371,115.09 144.501,112.513 144.501,109.335C144.501,109.335 144.501,109.335 144.501,109.335C144.501,106.157 151.371,103.581 159.845,103.581L239.772,103.581Z" style="fill:url(#_Linear20);"/>
                                            </g>
                                        </g>
                                    </g>
                                </g>
                            </g>
                        </g>
                    </g>
                </g>
            </g>
            <g transform="matrix(1,0,0,1,-21.2725,68.5545)">
                <g transform="matrix(1.02411,0.591269,-0.58846,1.01924,34.956,-255.038)">
                    <path d="M430.941,51.301C431.457,51.301 431.951,51.507 432.315,51.873C432.679,52.239 432.884,52.735 432.884,53.253C432.884,60.927 432.884,88.984 432.884,96.658C432.884,97.176 432.679,97.672 432.315,98.038C431.951,98.404 431.457,98.61 430.941,98.61C430.543,98.61 430.124,98.61 429.726,98.61C429.211,98.61 428.716,98.404 428.352,98.038C427.988,97.672 427.783,97.176 427.783,96.658C427.783,88.984 427.783,60.927 427.783,53.253C427.783,52.735 427.988,52.239 428.352,51.873C428.716,51.507 429.211,51.301 429.726,51.301C430.124,51.301 430.543,51.301 430.941,51.301Z" style="fill:url(#_Linear21);"/>
                </g>
                <g transform="matrix(6.12323e-17,1,-1,6.12323e-17,528.484,-367.504)">
                    <path d="M444.061,58.775L433.568,79.761C433.137,80.623 432.256,81.167 431.292,81.167L429.278,81.167C428.396,81.167 427.577,80.71 427.113,79.96C426.65,79.21 426.608,78.274 427.002,77.485L441.785,47.919C442.216,47.057 443.097,46.513 444.061,46.513C445.024,46.513 445.905,47.057 446.336,47.919L461.119,77.485C461.514,78.274 461.471,79.21 461.008,79.96C460.544,80.71 459.725,81.167 458.843,81.167L456.829,81.167C455.865,81.167 454.984,80.623 454.553,79.761L444.061,58.775Z" style="fill:url(#_Linear22);"/>
                </g>
                <g transform="matrix(-6.12323e-17,1,1,6.12323e-17,334.628,-367.504)">
                    <path d="M444.061,58.775L454.553,79.761C454.984,80.623 455.865,81.167 456.829,81.167L458.843,81.167C459.725,81.167 460.544,80.71 461.008,79.96C461.471,79.21 461.514,78.274 461.119,77.485L446.336,47.919C445.905,47.057 445.024,46.513 444.061,46.513C443.097,46.513 442.216,47.057 441.785,47.919L427.002,77.485C426.608,78.274 426.65,79.21 427.113,79.96C427.577,80.71 428.396,81.167 429.278,81.167L431.292,81.167C432.256,81.167 433.137,80.623 433.568,79.761L444.061,58.775Z" style="fill:url(#_Linear23);"/>
                </g>
            </g>
        </g>
    </g>
    <defs>
        <linearGradient id="_Linear1" x1="0" y1="0" x2="1" y2="0" gradientUnits="userSpaceOnUse" gradientTransform="matrix(361.624,413.201,-413.201,361.624,31.9693,32.6087)"><stop offset="0" style="stop-color:rgb(114,115,203);stop-opacity:1"/><stop offset="1" style="stop-color:rgb(224,204,250);stop-opacity:1"/></linearGradient>
        <linearGradient id="_Linear2" x1="0" y1="0" x2="1" y2="0" gradientUnits="userSpaceOnUse" gradientTransform="matrix(399.151,413.201,-456.08,361.624,-15.4062,62.0155)"><stop offset="0" style="stop-color:rgb(114,115,203);stop-opacity:1"/><stop offset="1" style="stop-color:rgb(224,204,250);stop-opacity:1"/></linearGradient>
        <linearGradient id="_Linear3" x1="0" y1="0" x2="1" y2="0" gradientUnits="userSpaceOnUse" gradientTransform="matrix(320.169,572.837,-365.833,501.335,134.482,57.4805)"><stop offset="0" style="stop-color:rgb(114,115,203);stop-opacity:1"/><stop offset="1" style="stop-color:rgb(224,204,250);stop-opacity:1"/></linearGradient>
        <linearGradient id="_Linear4" x1="0" y1="0" x2="1" y2="0" gradientUnits="userSpaceOnUse" gradientTransform="matrix(320.169,572.837,-365.833,501.335,134.482,40.4614)"><stop offset="0" style="stop-color:rgb(114,115,203);stop-opacity:1"/><stop offset="1" style="stop-color:rgb(224,204,250);stop-opacity:1"/></linearGradient>
        <linearGradient id="_Linear5" x1="0" y1="0" x2="1" y2="0" gradientUnits="userSpaceOnUse" gradientTransform="matrix(476.111,572.837,-544.016,501.335,129.601,24.1515)"><stop offset="0" style="stop-color:rgb(114,115,203);stop-opacity:1"/><stop offset="1" style="stop-color:rgb(224,204,250);stop-opacity:1"/></linearGradient>
        <linearGradient id="_Linear6" x1="0" y1="0" x2="1" y2="0" gradientUnits="userSpaceOnUse" gradientTransform="matrix(580.343,329.334,-663.114,288.226,126.339,34.0575)"><stop offset="0" style="stop-color:rgb(114,115,203);stop-opacity:1"/><stop offset="1" style="stop-color:rgb(224,204,250);stop-opacity:1"/></linearGradient>
        <linearGradient id="_Linear7" x1="0" y1="0" x2="1" y2="0" gradientUnits="userSpaceOnUse" gradientTransform="matrix(768.563,329.334,-878.178,288.226,-34.4648,34.0575)"><stop offset="0" style="stop-color:rgb(114,115,203);stop-opacity:1"/><stop offset="1" style="stop-color:rgb(224,204,250);stop-opacity:1"/></linearGradient>
        <linearGradient id="_Linear8" x1="0" y1="0" x2="1" y2="0" gradientUnits="userSpaceOnUse" gradientTransform="matrix(341.463,390.164,-390.164,341.463,-83.7907,-138.843)"><stop offset="0" style="stop-color:rgb(114,115,203);stop-opacity:1"/><stop offset="1" style="stop-color:rgb(224,204,250);stop-opacity:1"/></linearGradient>
        <linearGradient id="_Linear9" x1="0" y1="0" x2="1" y2="0" gradientUnits="userSpaceOnUse" gradientTransform="matrix(376.898,390.164,-430.653,341.463,-143.179,-109.436)"><stop offset="0" style="stop-color:rgb(114,115,203);stop-opacity:1"/><stop offset="1" style="stop-color:rgb(224,204,250);stop-opacity:1"/></linearGradient>
        <linearGradient id="_Linear10" x1="0" y1="0" x2="1" y2="0" gradientUnits="userSpaceOnUse" gradientTransform="matrix(302.319,540.901,-345.437,473.385,31.9919,-180.21)"><stop offset="0" style="stop-color:rgb(114,115,203);stop-opacity:1"/><stop offset="1" style="stop-color:rgb(224,204,250);stop-opacity:1"/></linearGradient>
        <linearGradient id="_Linear11" x1="0" y1="0" x2="1" y2="0" gradientUnits="userSpaceOnUse" gradientTransform="matrix(302.319,540.901,-345.437,473.385,31.9919,-197.229)"><stop offset="0" style="stop-color:rgb(114,115,203);stop-opacity:1"/><stop offset="1" style="stop-color:rgb(224,204,250);stop-opacity:1"/></linearGradient>
        <linearGradient id="_Linear12" x1="0" y1="0" x2="1" y2="0" gradientUnits="userSpaceOnUse" gradientTransform="matrix(449.567,540.901,-513.687,473.385,-22.8073,-213.538)"><stop offset="0" style="stop-color:rgb(114,115,203);stop-opacity:1"/><stop offset="1" style="stop-color:rgb(224,204,250);stop-opacity:1"/></linearGradient>
        <linearGradient id="_Linear13" x1="0" y1="0" x2="1" y2="0" gradientUnits="userSpaceOnUse" gradientTransform="matrix(547.988,310.973,-626.145,272.157,-59.4351,-102.595)"><stop offset="0" style="stop-color:rgb(114,115,203);stop-opacity:1"/><stop offset="1" style="stop-color:rgb(224,204,250);stop-opacity:1"/></linearGradient>
        <linearGradient id="_Linear14" x1="0" y1="0" x2="1" y2="0" gradientUnits="userSpaceOnUse" gradientTransform="matrix(725.714,310.973,-829.219,272.157,-280.49,-102.595)"><stop offset="0" style="stop-color:rgb(114,115,203);stop-opacity:1"/><stop offset="1" style="stop-color:rgb(224,204,250);stop-opacity:1"/></linearGradient>
        <linearGradient id="_Linear15" x1="0" y1="0" x2="1" y2="0" gradientUnits="userSpaceOnUse" gradientTransform="matrix(-376.898,390.164,430.653,341.463,361.492,-210.587)"><stop offset="0" style="stop-color:rgb(114,115,203);stop-opacity:1"/><stop offset="1" style="stop-color:rgb(224,204,250);stop-opacity:1"/></linearGradient>
        <linearGradient id="_Linear16" x1="0" y1="0" x2="1" y2="0" gradientUnits="userSpaceOnUse" gradientTransform="matrix(-302.319,540.901,345.437,473.385,436.801,-320.439)"><stop offset="0" style="stop-color:rgb(114,115,203);stop-opacity:1"/><stop offset="1" style="stop-color:rgb(224,204,250);stop-opacity:1"/></linearGradient>
        <linearGradient id="_Linear17" x1="0" y1="0" x2="1" y2="0" gradientUnits="userSpaceOnUse" gradientTransform="matrix(-302.319,540.901,345.437,473.385,436.801,-337.458)"><stop offset="0" style="stop-color:rgb(114,115,203);stop-opacity:1"/><stop offset="1" style="stop-color:rgb(224,204,250);stop-opacity:1"/></linearGradient>
        <linearGradient id="_Linear18" x1="0" y1="0" x2="1" y2="0" gradientUnits="userSpaceOnUse" gradientTransform="matrix(-449.567,540.901,513.687,473.385,579.169,-353.768)"><stop offset="0" style="stop-color:rgb(114,115,203);stop-opacity:1"/><stop offset="1" style="stop-color:rgb(224,204,250);stop-opacity:1"/></linearGradient>
        <linearGradient id="_Linear19" x1="0" y1="0" x2="1" y2="0" gradientUnits="userSpaceOnUse" gradientTransform="matrix(-547.988,310.973,626.145,272.157,674.328,-183.215)"><stop offset="0" style="stop-color:rgb(114,115,203);stop-opacity:1"/><stop offset="1" style="stop-color:rgb(224,204,250);stop-opacity:1"/></linearGradient>
        <linearGradient id="_Linear20" x1="0" y1="0" x2="1" y2="0" gradientUnits="userSpaceOnUse" gradientTransform="matrix(-725.714,310.973,829.219,272.157,691.25,-183.215)"><stop offset="0" style="stop-color:rgb(114,115,203);stop-opacity:1"/><stop offset="1" style="stop-color:rgb(224,204,250);stop-opacity:1"/></linearGradient>
        <linearGradient id="_Linear21" x1="0" y1="0" x2="1" y2="0" gradientUnits="userSpaceOnUse" gradientTransform="matrix(94.7418,-6.52366,6.49266,95.1941,382.963,78.2174)"><stop offset="0" style="stop-color:rgb(114,115,203);stop-opacity:1"/><stop offset="1" style="stop-color:rgb(224,204,250);stop-opacity:1"/></linearGradient>
        <linearGradient id="_Linear22" x1="0" y1="0" x2="1" y2="0" gradientUnits="userSpaceOnUse" gradientTransform="matrix(49.3687,-100.865,100.865,49.3687,418.622,147.36)"><stop offset="0" style="stop-color:rgb(114,115,203);stop-opacity:1"/><stop offset="1" style="stop-color:rgb(224,204,250);stop-opacity:1"/></linearGradient>
        <linearGradient id="_Linear23" x1="0" y1="0" x2="1" y2="0" gradientUnits="userSpaceOnUse" gradientTransform="matrix(49.3687,100.865,100.865,-49.3687,418.622,46.4957)"><stop offset="0" style="stop-color:rgb(114,115,203);stop-opacity:1"/><stop offset="1" style="stop-color:rgb(224,204,250);stop-opacity:1"/></linearGradient>
    </defs>
</svg>
